<svg width="40" height="40" viewBox="0 0 40 40" fill="none" xmlns="http://www.w3.org/2000/svg">
<rect width="40" height="40" fill="#818181"/>
<g clip-path="url(#clip0_0_1)">
<rect width="768" height="3551" transform="translate(-708 -18)" fill="black"/>
<rect width="768" height="76" transform="translate(-708 -18)" fill="black"/>
<path d="M11 14C11 13.4477 11.4477 13 12 13H28C28.5523 13 29 13.4477 29 14C29 14.5523 28.5523 15 28 15H12C11.4477 15 11 14.5523 11 14ZM11 20C11 19.4477 11.4477 19 12 19H28C28.5523 19 29 19.4477 29 20C29 20.5523 28.5523 21 28 21H12C11.4477 21 11 20.5523 11 20ZM11 26C11 25.4477 11.4477 25 12 25H28C28.5523 25 29 25.4477 29 26C29 26.5523 28.5523 27 28 27H12C11.4477 27 11 26.5523 11 26Z" fill="#FFF"/>
</g>
<path d="M138.998 207L137.498 207L137.498 208.5L138.998 208.5L138.998 207ZM250.559 208.061C251.145 207.476 251.145 206.526 250.559 205.94L241.013 196.394C240.427 195.808 239.477 195.808 238.892 196.394C238.306 196.98 238.306 197.93 238.892 198.515L247.377 207.001L238.891 215.486C238.306 216.072 238.306 217.021 238.891 217.607C239.477 218.193 240.427 218.193 241.013 217.607L250.559 208.061ZM137.5 -229.5L137.498 207L140.498 207L140.5 -229.5L137.5 -229.5ZM138.998 208.5L249.498 208.501L249.498 205.501L138.998 205.5L138.998 208.5Z" fill="#2963A3"/>
<defs>
<clipPath id="clip0_0_1">
<rect width="768" height="3551" fill="black" transform="translate(-708 -18)"/>
</clipPath>
</defs>
</svg>
